<?xml version="1.0" encoding="UTF-8" ?>
<svg xmlns="http://www.w3.org/2000/svg" xmlns:xlink="http://www.w3.org/1999/xlink" width="116pt" height="98pt" viewBox="0.00 0.00 116.00 98.00">
<g id="graph0" class="graph" transform="scale(1 1) rotate(0) translate(4 94)">
<title>finite_state_machine</title>
<polygon fill="#ffffff" stroke="transparent" points="-4,4 -4,-94 112,-94 112,4 -4,4"/>
<!-- a -->
<g id="node1" class="node">
<title>a</title>
<ellipse fill="none" stroke="#000000" cx="18" cy="-72" rx="18" ry="18"/>
<text text-anchor="middle" x="18" y="-67.8" font-family="Times,serif" font-size="14.00" fill="#000000">a</text>
</g>
<!-- c -->
<g id="node2" class="node">
<title>c</title>
<ellipse fill="none" stroke="#000000" cx="90" cy="-45" rx="18" ry="18"/>
<text text-anchor="middle" x="90" y="-40.8" font-family="Times,serif" font-size="14.00" fill="#000000">c</text>
</g>
<!-- a&#45;&gt;c -->
<g id="edge1" class="edge">
<title>a-&gt;c</title>
<path fill="none" stroke="#000000" d="M35.063,-65.6014C43.5814,-62.407 54.0773,-58.471 63.6048,-54.8982"/>
<polygon fill="#000000" stroke="#000000" points="64.9251,-58.1411 73.0595,-51.3527 62.4672,-51.5868 64.9251,-58.1411"/>
</g>
<!-- b -->
<g id="node3" class="node">
<title>b</title>
<ellipse fill="none" stroke="#000000" cx="18" cy="-18" rx="18" ry="18"/>
<text text-anchor="middle" x="18" y="-13.8" font-family="Times,serif" font-size="14.00" fill="#000000">b</text>
</g>
<!-- b&#45;&gt;c -->
<g id="edge2" class="edge">
<title>b-&gt;c</title>
<path fill="none" stroke="#000000" d="M35.063,-24.3986C43.5814,-27.593 54.0773,-31.529 63.6048,-35.1018"/>
<polygon fill="#000000" stroke="#000000" points="62.4672,-38.4132 73.0595,-38.6473 64.9251,-31.8589 62.4672,-38.4132"/>
</g>
</g>
</svg>