<svg    xmlns="http://www.w3.org/2000/svg" 
        xmlns:xlink="http://www.w3.org/1999/xlink" 
        viewBox="0.00 0.00 320.30 432.40" 
        style="-webkit-tap-highlight-color: rgba(0, 0, 0, 0);"
        >
    <g id="graph0" class="graph" transform="translate(4,428.3999938964844) scale(1)">
    <polygon fill="white" stroke="none" points="-4,4 -4,-428.4 316.3,-428.4 316.3,4 -4,4"></polygon>
    <g id="clust1" class="cluster">
    <title>cluster_jouerSonSimultane</title>
    <polygon fill="none" stroke="black" points="35.3,-116.4 35.3,-416.4 177.3,-416.4 177.3,-116.4 35.3,-116.4"></polygon>
    <text text-anchor="middle" x="106.3" y="-399.8" font-family="Times,serif" font-size="14.00">jouerSonSimultane</text>
    </g>
    <g id="clust2" class="cluster">
    <title>cluster_jouerSon1</title>
    <polygon fill="none" stroke="black" points="231.3,-64 231.3,-108.4 304.3,-108.4 304.3,-64 231.3,-64"></polygon>
    <text text-anchor="middle" x="267.8" y="-91.8" font-family="Times,serif" font-size="14.00">jouerSon1</text>
    </g>
    <g id="clust3" class="cluster">
    <title>cluster_jouerSon2</title>
    <polygon fill="none" stroke="black" points="150.3,-64 150.3,-108.4 223.3,-108.4 223.3,-64 150.3,-64"></polygon>
    <text text-anchor="middle" x="186.8" y="-91.8" font-family="Times,serif" font-size="14.00">jouerSon2</text>
    </g>
    <g id="clust4" class="cluster">
    <title>cluster_jouerSon3</title>
    <polygon fill="none" stroke="black" points="40.3,-64 40.3,-108.4 113.3,-108.4 113.3,-64 40.3,-64"></polygon>
    <text text-anchor="middle" x="76.8" y="-91.8" font-family="Times,serif" font-size="14.00">jouerSon3</text>
    </g>
    <!-- start_jouerSonSimultane -->
    <g id="node1" class="node">
    <title>start_jouerSonSimultane</title>
    <ellipse fill="black" stroke="black" cx="106.3" cy="-381.8" rx="1.8" ry="1.8"></ellipse>
    </g>
    <!-- jouerSon1__start__jouerSonSimultane -->
    <g id="node3" class="node">
    <title>jouerSon1__start__jouerSonSimultane</title>
    <polygon fill="none" stroke="black" points="169.02,-331.56 106.3,-344 43.59,-331.56 43.65,-311.44 168.96,-311.44 169.02,-331.56"></polygon>
    <text text-anchor="middle" x="106.3" y="-321.8" font-family="Times,serif" font-size="14.00">jouerSon1</text>
    </g>
    <!-- start_jouerSonSimultane&#45;&gt;jouerSon1__start__jouerSonSimultane -->
    <g id="edge1" class="edge">
    <title>start_jouerSonSimultane-&gt;jouerSon1__start__jouerSonSimultane</title>
    <path fill="none" stroke="black" d="M106.3,-379.87C106.3,-376.71 106.3,-366 106.3,-355.03"></path>
    <polygon fill="black" stroke="black" points="109.8,-355.26 106.3,-345.26 102.8,-355.26 109.8,-355.26"></polygon>
    </g>
    <!-- end_jouerSonSimultane -->
    <g id="node2" class="node">
    <title>end_jouerSonSimultane</title>
    <ellipse fill="black" stroke="black" cx="132.3" cy="-126.2" rx="1.8" ry="1.8"></ellipse>
    </g>
    <!-- start_jouerSon1 -->
    <!-- end_jouerSonSimultane&#45;&gt;start_jouerSon1 -->
    <!-- start_jouerSon2 -->
    <!-- end_jouerSonSimultane&#45;&gt;start_jouerSon2 -->
    <!-- start_jouerSon3 -->
    <!-- end_jouerSonSimultane&#45;&gt;start_jouerSon3 -->
    <!-- ASYNC_END_jouerSonSimultane -->
    <g id="node12" class="node">
    <title>ASYNC_END_jouerSonSimultane</title>
    <ellipse fill="none" stroke="black" cx="147.3" cy="-18" rx="147.3" ry="18"></ellipse>
    <text text-anchor="middle" x="147.3" y="-13.8" font-family="Times,serif" font-size="14.00">ASYNC_END_jouerSonSimultane</text>
    </g>
    <!-- end_jouerSonSimultane&#45;&gt;ASYNC_END_jouerSonSimultane -->
    <g id="edge14" class="edge">
    <title>end_jouerSonSimultane-&gt;ASYNC_END_jouerSonSimultane</title>
    <path fill="none" stroke="black" stroke-dasharray="5,2" d="M132.47,-124.01C133.53,-116.52 139.33,-75.44 143.36,-46.94"></path>
    <polygon fill="black" stroke="black" points="146.92,-47.75 144.85,-37.36 139.99,-46.77 146.92,-47.75"></polygon>
    </g>
    <!-- jouerSon2__start__jouerSonSimultane -->
    <g id="node4" class="node">
    <title>jouerSon2__start__jouerSonSimultane</title>
    <polygon fill="none" stroke="black" points="169.02,-259.56 106.3,-272 43.59,-259.56 43.65,-239.44 168.96,-239.44 169.02,-259.56"></polygon>
    <text text-anchor="middle" x="106.3" y="-249.8" font-family="Times,serif" font-size="14.00">jouerSon2</text>
    </g>
    <!-- jouerSon1__start__jouerSonSimultane&#45;&gt;jouerSon2__start__jouerSonSimultane -->
    <g id="edge2" class="edge">
    <title>jouerSon1__start__jouerSonSimultane-&gt;jouerSon2__start__jouerSonSimultane</title>
    <path fill="none" stroke="black" d="M106.3,-311.17C106.3,-303.15 106.3,-292.76 106.3,-283.1"></path>
    <polygon fill="black" stroke="black" points="109.8,-283.28 106.3,-273.28 102.8,-283.28 109.8,-283.28"></polygon>
    </g>
    <!-- jouerSon1__start__jouerSonSimultane&#45;&gt;start_jouerSon1 -->
    <g id="edge8" class="edge">
    <title>jouerSon1__start__jouerSonSimultane-&gt;start_jouerSon1</title>
    <path fill="none" stroke="black" stroke-dasharray="5,2" d="M131.54,-310.95C146.67,-301.52 165.41,-287.92 178.3,-272 227.27,-211.52 252.89,-118.56 260.69,-86.3"></path>
    <polygon fill="black" stroke="black" points="264.32,-87.12 263.14,-76.59 257.5,-85.56 264.32,-87.12"></polygon>
    </g>
    <!-- jouerSon3__start__jouerSonSimultane -->
    <g id="node5" class="node">
    <title>jouerSon3__start__jouerSonSimultane</title>
    <polygon fill="none" stroke="black" points="169.02,-187.56 106.3,-200 43.59,-187.56 43.65,-167.44 168.96,-167.44 169.02,-187.56"></polygon>
    <text text-anchor="middle" x="106.3" y="-177.8" font-family="Times,serif" font-size="14.00">jouerSon3</text>
    </g>
    <!-- jouerSon2__start__jouerSonSimultane&#45;&gt;jouerSon3__start__jouerSonSimultane -->
    <g id="edge3" class="edge">
    <title>jouerSon2__start__jouerSonSimultane-&gt;jouerSon3__start__jouerSonSimultane</title>
    <path fill="none" stroke="black" d="M106.3,-239.17C106.3,-231.15 106.3,-220.76 106.3,-211.1"></path>
    <polygon fill="black" stroke="black" points="109.8,-211.28 106.3,-201.28 102.8,-211.28 109.8,-211.28"></polygon>
    </g>
    <!-- jouerSon2__start__jouerSonSimultane&#45;&gt;start_jouerSon2 -->
    <g id="edge9" class="edge">
    <title>jouerSon2__start__jouerSonSimultane-&gt;start_jouerSon2</title>
    <path fill="none" stroke="black" stroke-dasharray="5,2" d="M135.63,-239.01C151,-230.08 168.59,-216.97 178.3,-200 199.4,-163.15 195.96,-110.11 193.08,-86.69"></path>
    <polygon fill="black" stroke="black" points="196.41,-86.29 191.5,-76.9 189.48,-87.3 196.41,-86.29"></polygon>
    </g>
    <!-- jouerSon3__start__jouerSonSimultane&#45;&gt;end_jouerSonSimultane -->
    <g id="edge4" class="edge">
    <title>jouerSon3__start__jouerSonSimultane-&gt;end_jouerSonSimultane</title>
    <path fill="none" stroke="black" d="M113,-167.15C117.37,-158.1 123,-146.46 127.05,-138.08"></path>
    <polygon fill="black" stroke="black" points="130.59,-139.79 131.79,-129.26 124.29,-136.74 130.59,-139.79"></polygon>
    </g>
    <!-- jouerSon3__start__jouerSonSimultane&#45;&gt;start_jouerSon3 -->
    <g id="edge10" class="edge">
    <title>jouerSon3__start__jouerSonSimultane-&gt;start_jouerSon3</title>
    <path fill="none" stroke="black" stroke-dasharray="5,2" d="M105.78,-167.12C104.99,-146.07 103.5,-106.46 102.75,-86.68"></path>
    <polygon fill="black" stroke="black" points="106.22,-86.78 102.35,-76.92 99.23,-87.04 106.22,-86.78"></polygon>
    </g>
    <!-- end_jouerSon1 -->
    <!-- end_jouerSon1&#45;&gt;ASYNC_END_jouerSonSimultane -->
    <g id="edge11" class="edge">
    <title>end_jouerSon1-&gt;ASYNC_END_jouerSonSimultane</title>
    <path fill="none" stroke="black" stroke-dasharray="5,2" d="M240,-71.95C237.55,-70.36 232.04,-66.82 227.3,-64 214.54,-56.4 200.46,-48.37 187.72,-41.23"></path>
    <polygon fill="black" stroke="black" points="189.71,-37.78 179.28,-35.96 186.3,-43.89 189.71,-37.78"></polygon>
    </g>
    <!-- end_jouerSon2 -->
    <!-- end_jouerSon2&#45;&gt;ASYNC_END_jouerSonSimultane -->
    <g id="edge12" class="edge">
    <title>end_jouerSon2-&gt;ASYNC_END_jouerSonSimultane</title>
    <path fill="none" stroke="black" stroke-dasharray="5,2" d="M162.04,-71.87C161.15,-68.67 158.11,-57.77 155.02,-46.69"></path>
    <polygon fill="black" stroke="black" points="158.17,-45.95 152.12,-37.26 151.43,-47.83 158.17,-45.95"></polygon>
    </g>
    <!-- end_jouerSon3 -->
    <!-- end_jouerSon3&#45;&gt;ASYNC_END_jouerSonSimultane -->
    <g id="edge13" class="edge">
    <title>end_jouerSon3-&gt;ASYNC_END_jouerSonSimultane</title>
    <path fill="none" stroke="black" stroke-dasharray="5,2" d="M81.47,-71.87C85.89,-68.31 102.22,-55.2 117.51,-42.93"></path>
    <polygon fill="black" stroke="black" points="119.21,-45.25 124.81,-36.26 114.82,-39.79 119.21,-45.25"></polygon>
    </g>
    </g>
    </svg>