<svg xmlns="http://www.w3.org/2000/svg" 
xmlns:xlink="http://www.w3.org/1999/xlink" 
viewBox="0.00 0.00 379.81 1229.20" 
style="-webkit-tap-highlight-color: rgba(0, 0, 0, 0);"
>
    <g id="graph0" class="graph" transform="translate(4,1225.199951171875) scale(1)">
    <polygon fill="white" stroke="none" points="-4,4 -4,-1225.2 375.81,-1225.2 375.81,4 -4,4"></polygon>
    <g id="clust1" class="cluster">
    <title>cluster_jouerListeSonsSeq</title>
    <polygon fill="none" stroke="black" points="151.11,-1057.2 151.11,-1213.2 353.11,-1213.2 353.11,-1057.2 151.11,-1057.2"></polygon>
    <text text-anchor="middle" x="252.11" y="-1196.6" font-family="Times,serif" font-size="14.00">jouerListeSonsSeq</text>
    </g>
    <g id="clust2" class="cluster">
    <title>cluster_Seq__jouerSon1</title>
    <polygon fill="none" stroke="black" points="136.11,-893.2 136.11,-1049.2 278.11,-1049.2 278.11,-893.2 136.11,-893.2"></polygon>
    <text text-anchor="middle" x="207.11" y="-1032.6" font-family="Times,serif" font-size="14.00">Seq__jouerSon1</text>
    </g>
    <g id="clust3" class="cluster">
    <title>cluster_Seq__jouerSon2</title>
    <polygon fill="none" stroke="black" points="43.11,-540.8 43.11,-768.8 245.11,-768.8 245.11,-540.8 43.11,-540.8"></polygon>
    <text text-anchor="middle" x="144.11" y="-752.2" font-family="Times,serif" font-size="14.00">Seq__jouerSon2</text>
    </g>
    <g id="clust4" class="cluster">
    <title>cluster_jouerSon1</title>
    <polygon fill="none" stroke="black" points="115.11,-840.8 115.11,-885.2 188.11,-885.2 188.11,-840.8 115.11,-840.8"></polygon>
    <text text-anchor="middle" x="151.61" y="-868.6" font-family="Times,serif" font-size="14.00">jouerSon1</text>
    </g>
    <g id="clust5" class="cluster">
    <title>cluster_jouerSon2</title>
    <polygon fill="none" stroke="black" points="67.11,-488.4 67.11,-532.8 140.11,-532.8 140.11,-488.4 67.11,-488.4"></polygon>
    <text text-anchor="middle" x="103.61" y="-516.2" font-family="Times,serif" font-size="14.00">jouerSon2</text>
    </g>
    <g id="clust6" class="cluster">
    <title>cluster_Seq__jouerSon3</title>
    <polygon fill="none" stroke="black" points="60.11,-188.4 60.11,-416.4 262.11,-416.4 262.11,-188.4 60.11,-188.4"></polygon>
    <text text-anchor="middle" x="161.11" y="-399.8" font-family="Times,serif" font-size="14.00">Seq__jouerSon3</text>
    </g>
    <g id="clust7" class="cluster">
    <title>cluster_jouerSon3</title>
    <polygon fill="none" stroke="black" points="83.11,-136 83.11,-180.4 156.11,-180.4 156.11,-136 83.11,-136"></polygon>
    <text text-anchor="middle" x="119.61" y="-163.8" font-family="Times,serif" font-size="14.00">jouerSon3</text>
    </g>
    <!-- start_jouerListeSonsSeq -->
    <g id="node1" class="node">
    <title>start_jouerListeSonsSeq</title>
    <ellipse fill="black" stroke="black" cx="252.11" cy="-1178.6" rx="1.8" ry="1.8"></ellipse>
    </g>
    <!-- Seq__jouerSon1__start__jouerListeSonsSeq -->
    <g id="node3" class="node">
    <title>Seq__jouerSon1__start__jouerListeSonsSeq</title>
    <polygon fill="none" stroke="black" points="344.67,-1128.36 252.11,-1140.8 159.56,-1128.36 159.65,-1108.24 344.58,-1108.24 344.67,-1128.36"></polygon>
    <text text-anchor="middle" x="252.11" y="-1118.6" font-family="Times,serif" font-size="14.00">Seq__jouerSon1</text>
    </g>
    <!-- start_jouerListeSonsSeq&#45;&gt;Seq__jouerSon1__start__jouerListeSonsSeq -->
    <g id="edge1" class="edge">
    <title>start_jouerListeSonsSeq-&gt;Seq__jouerSon1__start__jouerListeSonsSeq</title>
    <path fill="none" stroke="black" d="M252.11,-1176.67C252.11,-1173.51 252.11,-1162.8 252.11,-1151.83"></path>
    <polygon fill="black" stroke="black" points="255.61,-1152.06 252.11,-1142.06 248.61,-1152.06 255.61,-1152.06"></polygon>
    </g>
    <!-- end_jouerListeSonsSeq -->
    <g id="node2" class="node">
    <title>end_jouerListeSonsSeq</title>
    <ellipse fill="black" stroke="black" cx="267.11" cy="-1067" rx="1.8" ry="1.8"></ellipse>
    </g>
    <!-- start_Seq__jouerSon1 -->
    <g id="node4" class="node">
    <title>start_Seq__jouerSon1</title>
    <ellipse fill="black" stroke="black" cx="237.11" cy="-1014.6" rx="1.8" ry="1.8"></ellipse>
    </g>
    <!-- end_jouerListeSonsSeq&#45;&gt;start_Seq__jouerSon1 -->
    <!-- ASYNC_END_jouerListeSonsSeq -->
    <g id="node24" class="node">
    <title>ASYNC_END_jouerListeSonsSeq</title>
    <ellipse fill="none" stroke="black" cx="226.11" cy="-18" rx="145.7" ry="18"></ellipse>
    <text text-anchor="middle" x="226.11" y="-13.8" font-family="Times,serif" font-size="14.00">ASYNC_END_jouerListeSonsSeq</text>
    </g>
    <!-- end_jouerListeSonsSeq&#45;&gt;ASYNC_END_jouerListeSonsSeq -->
    <g id="edge24" class="edge">
    <title>end_jouerListeSonsSeq-&gt;ASYNC_END_jouerListeSonsSeq</title>
    <path fill="none" stroke="black" stroke-dasharray="5,2" d="M268.08,-1065.2C270.72,-1062.95 278.14,-1056.29 282.11,-1049.2 302.42,-1013 309.11,-1001.31 309.11,-959.8 309.11,-959.8 309.11,-959.8 309.11,-144.8 309.11,-111.36 308.08,-100.2 290.11,-72 282.97,-60.78 272.67,-50.77 262.42,-42.55"></path>
    <polygon fill="black" stroke="black" points="264.97,-39.34 254.88,-36.08 260.74,-44.91 264.97,-39.34"></polygon>
    </g>
    <!-- Seq__jouerSon1__start__jouerListeSonsSeq&#45;&gt;end_jouerListeSonsSeq -->
    <g id="edge2" class="edge">
    <title>Seq__jouerSon1__start__jouerListeSonsSeq-&gt;end_jouerListeSonsSeq</title>
    <path fill="none" stroke="black" d="M255.98,-1107.95C258.44,-1099.12 261.59,-1087.82 263.91,-1079.49"></path>
    <polygon fill="black" stroke="black" points="267.5,-1080.64 266.82,-1070.06 260.76,-1078.76 267.5,-1080.64"></polygon>
    </g>
    <!-- Seq__jouerSon1__start__jouerListeSonsSeq&#45;&gt;start_Seq__jouerSon1 -->
    <g id="edge16" class="edge">
    <title>Seq__jouerSon1__start__jouerListeSonsSeq-&gt;start_Seq__jouerSon1</title>
    <path fill="none" stroke="black" stroke-dasharray="5,2" d="M250.15,-1107.92C247.18,-1086.87 241.59,-1047.26 238.79,-1027.48"></path>
    <polygon fill="black" stroke="black" points="242.14,-1027.13 237.27,-1017.72 235.21,-1028.11 242.14,-1027.13"></polygon>
    </g>
    <!-- jouerSon1__start__Seq__jouerSon1 -->
    <g id="node6" class="node">
    <title>jouerSon1__start__Seq__jouerSon1</title>
    <polygon fill="none" stroke="black" points="269.83,-964.36 207.11,-976.8 144.4,-964.36 144.46,-944.24 269.77,-944.24 269.83,-964.36"></polygon>
    <text text-anchor="middle" x="207.11" y="-954.6" font-family="Times,serif" font-size="14.00">jouerSon1</text>
    </g>
    <!-- start_Seq__jouerSon1&#45;&gt;jouerSon1__start__Seq__jouerSon1 -->
    <g id="edge3" class="edge">
    <title>start_Seq__jouerSon1-&gt;jouerSon1__start__Seq__jouerSon1</title>
    <path fill="none" stroke="black" d="M236.59,-1012.67C234.67,-1009.21 227.7,-996.72 221.02,-984.75"></path>
    <polygon fill="black" stroke="black" points="223.76,-983.47 215.83,-976.44 217.65,-986.88 223.76,-983.47"></polygon>
    </g>
    <!-- end_Seq__jouerSon1 -->
    <g id="node5" class="node">
    <title>end_Seq__jouerSon1</title>
    <ellipse fill="black" stroke="black" cx="207.11" cy="-903" rx="1.8" ry="1.8"></ellipse>
    </g>
    <!-- start_jouerSon1 -->
    <!-- end_Seq__jouerSon1&#45;&gt;start_jouerSon1 -->
    <!-- ASYNC_END_Seq__jouerSon1 -->
    <g id="node21" class="node">
    <title>ASYNC_END_Seq__jouerSon1</title>
    <ellipse fill="none" stroke="black" cx="144.11" cy="-794.8" rx="137.11" ry="18"></ellipse>
    <text text-anchor="middle" x="144.11" y="-790.6" font-family="Times,serif" font-size="14.00">ASYNC_END_Seq__jouerSon1</text>
    </g>
    <!-- end_Seq__jouerSon1&#45;&gt;ASYNC_END_Seq__jouerSon1 -->
    <g id="edge26" class="edge">
    <title>end_Seq__jouerSon1-&gt;ASYNC_END_Seq__jouerSon1</title>
    <path fill="none" stroke="black" stroke-dasharray="5,2" d="M207.07,-900.74C206.77,-894.05 204.7,-862.33 192.11,-840.8 187.74,-833.31 181.73,-826.31 175.45,-820.16"></path>
    <polygon fill="black" stroke="black" points="178.2,-818.01 168.45,-813.85 173.48,-823.18 178.2,-818.01"></polygon>
    </g>
    <!-- jouerSon1__start__Seq__jouerSon1&#45;&gt;end_Seq__jouerSon1 -->
    <g id="edge4" class="edge">
    <title>jouerSon1__start__Seq__jouerSon1-&gt;end_Seq__jouerSon1</title>
    <path fill="none" stroke="black" d="M207.11,-943.95C207.11,-935.23 207.11,-924.1 207.11,-915.8"></path>
    <polygon fill="black" stroke="black" points="210.61,-916.06 207.11,-906.06 203.61,-916.06 210.61,-916.06"></polygon>
    </g>
    <!-- jouerSon1__start__Seq__jouerSon1&#45;&gt;start_jouerSon1 -->
    <g id="edge18" class="edge">
    <title>jouerSon1__start__Seq__jouerSon1-&gt;start_jouerSon1</title>
    <path fill="none" stroke="black" stroke-dasharray="5,2" d="M203.19,-943.92C197.22,-922.77 185.95,-882.87 180.39,-863.19"></path>
    <polygon fill="black" stroke="black" points="183.52,-862.39 177.43,-853.72 176.78,-864.29 183.52,-862.39"></polygon>
    </g>
    <!-- start_Seq__jouerSon2 -->
    <g id="node7" class="node">
    <title>start_Seq__jouerSon2</title>
    <ellipse fill="black" stroke="black" cx="129.11" cy="-734.2" rx="1.8" ry="1.8"></ellipse>
    </g>
    <!-- Seq__jouerSon1__end__Seq__jouerSon2 -->
    <g id="node9" class="node">
    <title>Seq__jouerSon1__end__Seq__jouerSon2</title>
    <polygon fill="none" stroke="black" points="51.56,-672.84 144.11,-660.4 236.67,-672.84 236.58,-692.96 51.65,-692.96 51.56,-672.84"></polygon>
    <text text-anchor="middle" x="144.11" y="-674.2" font-family="Times,serif" font-size="14.00">Seq__jouerSon1</text>
    </g>
    <!-- start_Seq__jouerSon2&#45;&gt;Seq__jouerSon1__end__Seq__jouerSon2 -->
    <g id="edge5" class="edge">
    <title>start_Seq__jouerSon2-&gt;Seq__jouerSon1__end__Seq__jouerSon2</title>
    <path fill="none" stroke="black" d="M129.37,-732.27C130.36,-728.75 133.95,-715.87 137.34,-703.71"></path>
    <polygon fill="black" stroke="black" points="140.88,-705.03 140.19,-694.46 134.14,-703.15 140.88,-705.03"></polygon>
    </g>
    <!-- end_Seq__jouerSon2 -->
    <g id="node8" class="node">
    <title>end_Seq__jouerSon2</title>
    <ellipse fill="black" stroke="black" cx="159.11" cy="-550.6" rx="1.8" ry="1.8"></ellipse>
    </g>
    <!-- start_jouerSon2 -->
    <!-- end_Seq__jouerSon2&#45;&gt;start_jouerSon2 -->
    <!-- ASYNC_END_Seq__jouerSon2 -->
    <g id="node22" class="node">
    <title>ASYNC_END_Seq__jouerSon2</title>
    <ellipse fill="none" stroke="black" cx="137.11" cy="-442.4" rx="137.11" ry="18"></ellipse>
    <text text-anchor="middle" x="137.11" y="-438.2" font-family="Times,serif" font-size="14.00">ASYNC_END_Seq__jouerSon2</text>
    </g>
    <!-- end_Seq__jouerSon2&#45;&gt;ASYNC_END_Seq__jouerSon2 -->
    <g id="edge28" class="edge">
    <title>end_Seq__jouerSon2-&gt;ASYNC_END_Seq__jouerSon2</title>
    <path fill="none" stroke="black" stroke-dasharray="5,2" d="M158.87,-548.41C157.32,-540.92 148.81,-499.84 142.9,-471.34"></path>
    <polygon fill="black" stroke="black" points="146.17,-470.84 140.71,-461.76 139.31,-472.26 146.17,-470.84"></polygon>
    </g>
    <!-- jouerSon2__start__Seq__jouerSon2 -->
    <g id="node10" class="node">
    <title>jouerSon2__start__Seq__jouerSon2</title>
    <polygon fill="none" stroke="black" points="206.83,-611.96 144.11,-624.4 81.4,-611.96 81.46,-591.84 206.77,-591.84 206.83,-611.96"></polygon>
    <text text-anchor="middle" x="144.11" y="-602.2" font-family="Times,serif" font-size="14.00">jouerSon2</text>
    </g>
    <!-- Seq__jouerSon1__end__Seq__jouerSon2&#45;&gt;jouerSon2__start__Seq__jouerSon2 -->
    <g id="edge6" class="edge">
    <title>Seq__jouerSon1__end__Seq__jouerSon2-&gt;jouerSon2__start__Seq__jouerSon2</title>
    <path fill="none" stroke="black" d="M144.11,-660.1C144.11,-652.64 144.11,-643.72 144.11,-635.37"></path>
    <polygon fill="black" stroke="black" points="147.61,-635.5 144.11,-625.5 140.61,-635.5 147.61,-635.5"></polygon>
    </g>
    <!-- jouerSon2__start__Seq__jouerSon2&#45;&gt;end_Seq__jouerSon2 -->
    <g id="edge7" class="edge">
    <title>jouerSon2__start__Seq__jouerSon2-&gt;end_Seq__jouerSon2</title>
    <path fill="none" stroke="black" d="M147.98,-591.55C150.44,-582.72 153.59,-571.42 155.91,-563.09"></path>
    <polygon fill="black" stroke="black" points="159.5,-564.24 158.82,-553.66 152.76,-562.36 159.5,-564.24"></polygon>
    </g>
    <!-- jouerSon2__start__Seq__jouerSon2&#45;&gt;start_jouerSon2 -->
    <g id="edge20" class="edge">
    <title>jouerSon2__start__Seq__jouerSon2-&gt;start_jouerSon2</title>
    <path fill="none" stroke="black" stroke-dasharray="5,2" d="M142.15,-591.52C139.18,-570.47 133.59,-530.86 130.79,-511.08"></path>
    <polygon fill="black" stroke="black" points="134.14,-510.73 129.27,-501.32 127.21,-511.71 134.14,-510.73"></polygon>
    </g>
    <!-- end_jouerSon1 -->
    <!-- end_jouerSon1&#45;&gt;ASYNC_END_Seq__jouerSon1 -->
    <g id="edge25" class="edge">
    <title>end_jouerSon1-&gt;ASYNC_END_Seq__jouerSon1</title>
    <path fill="none" stroke="black" stroke-dasharray="5,2" d="M144.11,-848.67C144.11,-845.51 144.11,-834.8 144.11,-823.83"></path>
    <polygon fill="black" stroke="black" points="147.61,-824.06 144.11,-814.06 140.61,-824.06 147.61,-824.06"></polygon>
    </g>
    <!-- end_jouerSon2 -->
    <!-- end_jouerSon2&#45;&gt;ASYNC_END_Seq__jouerSon2 -->
    <g id="edge27" class="edge">
    <title>end_jouerSon2-&gt;ASYNC_END_Seq__jouerSon2</title>
    <path fill="none" stroke="black" stroke-dasharray="5,2" d="M107.64,-496.27C109.47,-492.97 115.87,-481.49 122.25,-470.06"></path>
    <polygon fill="black" stroke="black" points="125.68,-472.1 127.49,-461.66 119.56,-468.69 125.68,-472.1"></polygon>
    </g>
    <!-- start_Seq__jouerSon3 -->
    <g id="node15" class="node">
    <title>start_Seq__jouerSon3</title>
    <ellipse fill="black" stroke="black" cx="133.11" cy="-381.8" rx="1.8" ry="1.8"></ellipse>
    </g>
    <!-- Seq__jouerSon2__end__Seq__jouerSon3 -->
    <g id="node17" class="node">
    <title>Seq__jouerSon2__end__Seq__jouerSon3</title>
    <polygon fill="none" stroke="black" points="68.56,-320.44 161.11,-308 253.67,-320.44 253.58,-340.56 68.65,-340.56 68.56,-320.44"></polygon>
    <text text-anchor="middle" x="161.11" y="-321.8" font-family="Times,serif" font-size="14.00">Seq__jouerSon2</text>
    </g>
    <!-- start_Seq__jouerSon3&#45;&gt;Seq__jouerSon2__end__Seq__jouerSon3 -->
    <g id="edge8" class="edge">
    <title>start_Seq__jouerSon3-&gt;Seq__jouerSon2__end__Seq__jouerSon3</title>
    <path fill="none" stroke="black" d="M133.6,-379.87C135.47,-376.28 142.4,-362.95 148.84,-350.58"></path>
    <polygon fill="black" stroke="black" points="152.28,-352.55 153.8,-342.06 146.08,-349.32 152.28,-352.55"></polygon>
    </g>
    <!-- end_Seq__jouerSon3 -->
    <g id="node16" class="node">
    <title>end_Seq__jouerSon3</title>
    <ellipse fill="black" stroke="black" cx="175.11" cy="-198.2" rx="1.8" ry="1.8"></ellipse>
    </g>
    <!-- start_jouerSon3 -->
    <!-- end_Seq__jouerSon3&#45;&gt;start_jouerSon3 -->
    <!-- ASYNC_END_Seq__jouerSon3 -->
    <g id="node23" class="node">
    <title>ASYNC_END_Seq__jouerSon3</title>
    <ellipse fill="none" stroke="black" cx="144.11" cy="-90" rx="137.11" ry="18"></ellipse>
    <text text-anchor="middle" x="144.11" y="-85.8" font-family="Times,serif" font-size="14.00">ASYNC_END_Seq__jouerSon3</text>
    </g>
    <!-- end_Seq__jouerSon3&#45;&gt;ASYNC_END_Seq__jouerSon3 -->
    <g id="edge30" class="edge">
    <title>end_Seq__jouerSon3-&gt;ASYNC_END_Seq__jouerSon3</title>
    <path fill="none" stroke="black" stroke-dasharray="5,2" d="M174.94,-196.33C173.8,-190.82 167.4,-160.31 160.11,-136 158.39,-130.24 156.36,-124.14 154.33,-118.34"></path>
    <polygon fill="black" stroke="black" points="157.43,-117.62 150.76,-109.39 150.84,-119.98 157.43,-117.62"></polygon>
    </g>
    <!-- jouerSon3__start__Seq__jouerSon3 -->
    <g id="node18" class="node">
    <title>jouerSon3__start__Seq__jouerSon3</title>
    <polygon fill="none" stroke="black" points="223.83,-259.56 161.11,-272 98.4,-259.56 98.46,-239.44 223.77,-239.44 223.83,-259.56"></polygon>
    <text text-anchor="middle" x="161.11" y="-249.8" font-family="Times,serif" font-size="14.00">jouerSon3</text>
    </g>
    <!-- Seq__jouerSon2__end__Seq__jouerSon3&#45;&gt;jouerSon3__start__Seq__jouerSon3 -->
    <g id="edge9" class="edge">
    <title>Seq__jouerSon2__end__Seq__jouerSon3-&gt;jouerSon3__start__Seq__jouerSon3</title>
    <path fill="none" stroke="black" d="M161.11,-307.7C161.11,-300.24 161.11,-291.32 161.11,-282.97"></path>
    <polygon fill="black" stroke="black" points="164.61,-283.1 161.11,-273.1 157.61,-283.1 164.61,-283.1"></polygon>
    </g>
    <!-- jouerSon3__start__Seq__jouerSon3&#45;&gt;end_Seq__jouerSon3 -->
    <g id="edge10" class="edge">
    <title>jouerSon3__start__Seq__jouerSon3-&gt;end_Seq__jouerSon3</title>
    <path fill="none" stroke="black" d="M164.72,-239.15C167.02,-230.32 169.96,-219.02 172.12,-210.69"></path>
    <polygon fill="black" stroke="black" points="175.71,-211.82 174.84,-201.26 168.93,-210.06 175.71,-211.82"></polygon>
    </g>
    <!-- jouerSon3__start__Seq__jouerSon3&#45;&gt;start_jouerSon3 -->
    <g id="edge22" class="edge">
    <title>jouerSon3__start__Seq__jouerSon3-&gt;start_jouerSon3</title>
    <path fill="none" stroke="black" stroke-dasharray="5,2" d="M159.02,-239.12C155.85,-218.07 149.88,-178.46 146.9,-158.68"></path>
    <polygon fill="black" stroke="black" points="150.23,-158.28 145.28,-148.92 143.31,-159.33 150.23,-158.28"></polygon>
    </g>
    <!-- end_jouerSon3 -->
    <!-- end_jouerSon3&#45;&gt;ASYNC_END_Seq__jouerSon3 -->
    <g id="edge29" class="edge">
    <title>end_jouerSon3-&gt;ASYNC_END_Seq__jouerSon3</title>
    <path fill="none" stroke="black" stroke-dasharray="5,2" d="M123.48,-143.87C124.74,-140.64 129.07,-129.55 133.44,-118.35"></path>
    <polygon fill="black" stroke="black" points="137,-119.85 137.38,-109.26 130.48,-117.3 137,-119.85"></polygon>
    </g>
    <!-- ASYNC_END_Seq__jouerSon1&#45;&gt;start_Seq__jouerSon2 -->
    <!-- ASYNC_END_Seq__jouerSon1&#45;&gt;Seq__jouerSon1__end__Seq__jouerSon2 -->
    <g id="edge12" class="edge">
    <title>ASYNC_END_Seq__jouerSon1-&gt;Seq__jouerSon1__end__Seq__jouerSon2</title>
    <path fill="none" stroke="black" stroke-dasharray="5,2" d="M144.11,-776.43C144.11,-757.14 144.11,-725.86 144.11,-704.05"></path>
    <polygon fill="black" stroke="black" points="147.61,-704.33 144.11,-694.33 140.61,-704.33 147.61,-704.33"></polygon>
    </g>
    <!-- ASYNC_END_Seq__jouerSon2&#45;&gt;start_Seq__jouerSon3 -->
    <!-- ASYNC_END_Seq__jouerSon2&#45;&gt;Seq__jouerSon2__end__Seq__jouerSon3 -->
    <g id="edge14" class="edge">
    <title>ASYNC_END_Seq__jouerSon2-&gt;Seq__jouerSon2__end__Seq__jouerSon3</title>
    <path fill="none" stroke="black" stroke-dasharray="5,2" d="M142.2,-423.96C142.88,-421.44 143.54,-418.86 144.11,-416.4 149.21,-394.7 153.85,-369.76 156.99,-351.75"></path>
    <polygon fill="black" stroke="black" points="160.59,-352.46 158.83,-342.01 153.69,-351.28 160.59,-352.46"></polygon>
    </g>
    <!-- ASYNC_END_Seq__jouerSon3&#45;&gt;ASYNC_END_jouerListeSonsSeq -->
    <g id="edge23" class="edge">
    <title>ASYNC_END_Seq__jouerSon3-&gt;ASYNC_END_jouerListeSonsSeq</title>
    <path fill="none" stroke="black" stroke-dasharray="5,2" d="M163.96,-72.05C174.09,-63.41 186.58,-52.75 197.7,-43.26"></path>
    <polygon fill="black" stroke="black" points="199.54,-45.43 204.88,-36.28 195,-40.11 199.54,-45.43"></polygon>
    </g>
    </g>
    </svg>